<svg xmlns="http://www.w3.org/2000/svg" xmlns:xlink="http://www.w3.org/1999/xlink" width="500" zoomAndPan="magnify" viewBox="0 0 375 374.999991" height="500" preserveAspectRatio="xMidYMid meet" version="1.0"><defs><g/><clipPath id="e7863c0ddd"><path d="M 33.332031 28.550781 L 351.332031 28.550781 L 351.332031 346.550781 L 33.332031 346.550781 Z M 33.332031 28.550781 " clip-rule="nonzero"/></clipPath></defs><g fill="#fdfdfd" fill-opacity="1"><g transform="translate(58.445694, 287.805224)"><g><path d="M 161.140625 -51.75 L 161.140625 0 L 131.140625 0 L 131.140625 -51.75 L 11.125 -51.75 L 11.125 -81.75 L 132.484375 -233.28125 L 161.140625 -233.28125 L 161.140625 -78.71875 L 193.328125 -78.71875 L 193.328125 -51.75 Z M 131.140625 -188.78125 L 41.796875 -78.71875 L 131.140625 -78.71875 Z M 131.140625 -188.78125 "/></g></g></g><g clip-path="url(#e7863c0ddd)"><path fill="#fdfdfd" d="M 341.496094 229.945312 C 337.464844 243.671875 331.308594 256.695312 323.667969 268.6875 C 317.363281 278.445312 310.191406 287.621094 302.132812 295.960938 C 301.09375 297.101562 299.929688 298.121094 298.824219 299.199219 C 297.699219 300.253906 296.605469 301.347656 295.457031 302.375 L 290.21875 306.933594 L 288.40625 308.375 L 284.789062 311.265625 C 283.5625 312.203125 282.296875 313.085938 281.058594 314.003906 C 278.601562 315.882812 275.992188 317.535156 273.4375 319.273438 C 273.070312 319.519531 272.679688 319.777344 272.277344 320.050781 C 271.863281 320.300781 271.429688 320.5625 270.976562 320.832031 C 270.074219 321.371094 269.105469 321.953125 268.074219 322.570312 C 266.03125 323.851562 263.613281 325.058594 261.007812 326.445312 C 260.351562 326.785156 259.695312 327.152344 259 327.484375 C 258.304688 327.808594 257.59375 328.140625 256.867188 328.476562 C 255.417969 329.144531 253.914062 329.839844 252.367188 330.554688 C 249.191406 331.796875 245.875 333.289062 242.265625 334.445312 C 228 339.617188 210.199219 342.816406 192.332031 342.890625 C 174.46875 342.816406 156.664062 339.617188 142.402344 334.445312 C 138.789062 333.289062 135.476562 331.796875 132.296875 330.554688 C 130.75 329.839844 129.25 329.144531 127.796875 328.476562 C 127.074219 328.140625 126.363281 327.808594 125.664062 327.488281 C 124.972656 327.15625 124.316406 326.785156 123.660156 326.445312 C 121.050781 325.0625 118.632812 323.851562 116.59375 322.570312 C 115.5625 321.953125 114.589844 321.371094 113.6875 320.832031 C 113.238281 320.5625 112.804688 320.300781 112.386719 320.050781 C 111.984375 319.78125 111.597656 319.519531 111.230469 319.273438 C 101.523438 312.914062 92.40625 305.6875 84.117188 297.574219 C 75.375 288.839844 67.734375 279.058594 60.996094 268.6875 C 53.355469 256.695312 47.203125 243.671875 43.167969 229.945312 C 38.972656 216.265625 37.03125 201.910156 36.90625 187.550781 C 37.03125 173.195312 38.972656 158.835938 43.167969 145.15625 C 47.203125 131.429688 53.355469 118.410156 60.996094 106.417969 C 67.300781 96.65625 74.472656 87.484375 82.53125 79.140625 C 83.574219 78 84.734375 76.980469 85.84375 75.90625 C 86.96875 74.847656 88.058594 73.757812 89.210938 72.726562 L 94.449219 68.167969 L 96.261719 66.730469 L 99.878906 63.839844 C 101.101562 62.902344 102.367188 62.015625 103.609375 61.097656 C 106.0625 59.222656 108.671875 57.570312 111.226562 55.832031 C 111.597656 55.582031 111.984375 55.324219 112.386719 55.054688 C 112.804688 54.804688 113.234375 54.542969 113.6875 54.269531 C 114.589844 53.730469 115.558594 53.152344 116.59375 52.535156 C 118.632812 51.25 121.050781 50.042969 123.65625 48.65625 C 124.3125 48.320312 124.972656 47.949219 125.664062 47.617188 C 126.363281 47.292969 127.074219 46.964844 127.796875 46.628906 C 129.246094 45.957031 130.75 45.265625 132.296875 44.546875 C 135.476562 43.304688 138.789062 41.816406 142.402344 40.660156 C 156.664062 35.488281 174.46875 32.289062 192.332031 32.214844 C 210.195312 32.289062 228 35.488281 242.261719 40.660156 C 245.875 41.816406 249.1875 43.304688 252.367188 44.546875 C 253.914062 45.265625 255.417969 45.957031 256.867188 46.628906 C 257.589844 46.964844 258.304688 47.292969 259 47.617188 C 259.691406 47.949219 260.351562 48.320312 261.007812 48.65625 C 263.613281 50.042969 266.03125 51.25 268.070312 52.535156 C 269.105469 53.152344 270.074219 53.730469 270.976562 54.269531 C 271.425781 54.542969 271.859375 54.800781 272.277344 55.054688 C 272.679688 55.324219 273.066406 55.582031 273.4375 55.832031 C 283.140625 62.191406 292.257812 69.414062 300.546875 77.53125 C 309.289062 86.261719 316.929688 96.042969 323.667969 106.414062 C 331.308594 118.410156 337.464844 131.429688 341.496094 145.15625 C 345.691406 158.835938 347.632812 173.195312 347.757812 187.550781 C 347.632812 201.910156 345.691406 216.265625 341.496094 229.945312 Z M 351.332031 187.445312 L 351.328125 187.433594 C 351.199219 172.773438 349.226562 158.101562 344.953125 144.117188 C 340.847656 130.085938 334.554688 116.769531 326.710938 104.535156 L 322.941406 98.867188 C 322.941406 98.867188 321.851562 97.34375 320.21875 95.058594 C 318.644531 92.726562 316.234375 89.851562 313.933594 86.894531 C 311.457031 84.085938 309.082031 81.1875 307.082031 79.210938 C 305.140625 77.183594 303.84375 75.835938 303.84375 75.835938 C 303.84375 75.835938 303.515625 75.5 302.925781 74.933594 C 302.335938 74.363281 301.496094 73.550781 300.488281 72.574219 C 298.519531 70.570312 295.660156 68.152344 292.855469 65.671875 C 291.414062 64.476562 289.933594 63.332031 288.566406 62.230469 C 287.878906 61.683594 287.214844 61.15625 286.585938 60.65625 C 285.933594 60.183594 285.316406 59.738281 284.75 59.328125 C 282.472656 57.683594 280.953125 56.589844 280.953125 56.589844 C 280.953125 56.589844 280.621094 56.320312 280.089844 55.976562 C 279.558594 55.621094 278.851562 55.148438 278.148438 54.675781 C 276.734375 53.730469 275.320312 52.785156 275.320312 52.785156 C 274.945312 52.53125 274.550781 52.261719 274.136719 51.984375 C 273.710938 51.726562 273.269531 51.460938 272.808594 51.183594 C 271.886719 50.625 270.894531 50.03125 269.839844 49.398438 C 267.753906 48.082031 265.28125 46.839844 262.617188 45.417969 C 261.945312 45.070312 261.269531 44.691406 260.5625 44.351562 C 259.847656 44.019531 259.121094 43.679688 258.382812 43.335938 C 256.898438 42.648438 255.359375 41.9375 253.777344 41.203125 C 250.523438 39.925781 247.136719 38.402344 243.4375 37.210938 C 228.839844 31.910156 210.613281 28.625 192.332031 28.550781 C 174.054688 28.625 155.824219 31.910156 141.226562 37.210938 C 137.53125 38.402344 134.136719 39.925781 130.886719 41.203125 C 129.300781 41.9375 127.765625 42.648438 126.285156 43.335938 C 125.542969 43.683594 124.816406 44.019531 124.101562 44.351562 C 123.390625 44.691406 122.71875 45.070312 122.046875 45.417969 C 119.382812 46.839844 116.910156 48.082031 114.824219 49.398438 C 113.769531 50.03125 112.777344 50.628906 111.855469 51.183594 C 111.394531 51.460938 110.953125 51.726562 110.527344 51.984375 C 110.113281 52.265625 109.71875 52.53125 109.34375 52.785156 C 109.34375 52.785156 107.929688 53.730469 106.519531 54.675781 C 105.8125 55.148438 105.105469 55.621094 104.578125 55.976562 C 104.042969 56.320312 103.710938 56.589844 103.710938 56.589844 C 103.710938 56.589844 102.195312 57.683594 99.917969 59.328125 C 99.347656 59.738281 98.730469 60.183594 98.078125 60.65625 C 97.449219 61.15625 96.785156 61.683594 96.097656 62.230469 C 94.730469 63.332031 93.25 64.476562 91.808594 65.671875 C 89.007812 68.152344 86.148438 70.570312 84.175781 72.574219 C 83.167969 73.550781 82.328125 74.363281 81.738281 74.933594 C 81.148438 75.5 80.820312 75.835938 80.820312 75.835938 C 80.820312 75.835938 79.527344 77.183594 77.582031 79.210938 C 75.585938 81.1875 73.207031 84.085938 70.730469 86.894531 C 68.429688 89.851562 66.019531 92.726562 64.445312 95.058594 C 62.8125 97.347656 61.722656 98.871094 61.722656 98.871094 L 57.953125 104.535156 C 50.109375 116.769531 43.816406 130.085938 39.710938 144.117188 C 35.4375 158.105469 33.46875 172.773438 33.335938 187.433594 L 33.335938 187.445312 L 33.332031 187.550781 L 33.335938 187.65625 L 33.335938 187.671875 C 33.46875 202.332031 35.4375 217 39.710938 230.988281 C 43.816406 245.019531 50.109375 258.335938 57.953125 270.566406 L 61.722656 276.234375 C 61.722656 276.234375 62.8125 277.757812 64.445312 280.046875 C 66.019531 282.378906 68.429688 285.253906 70.730469 288.210938 C 73.207031 291.015625 75.585938 293.914062 77.582031 295.890625 C 79.527344 297.917969 80.820312 299.269531 80.820312 299.269531 C 80.820312 299.269531 81.148438 299.605469 81.738281 300.171875 C 82.328125 300.738281 83.167969 301.554688 84.175781 302.527344 C 86.148438 304.535156 89.007812 306.953125 91.808594 309.433594 C 93.25 310.628906 94.730469 311.773438 96.097656 312.875 C 96.785156 313.421875 97.449219 313.949219 98.078125 314.449219 C 98.730469 314.921875 99.347656 315.363281 99.917969 315.773438 C 102.195312 317.417969 103.710938 318.515625 103.710938 318.515625 C 103.710938 318.515625 104.042969 318.78125 104.578125 319.128906 C 105.109375 319.484375 105.8125 319.953125 106.519531 320.429688 C 107.929688 321.375 109.34375 322.320312 109.34375 322.320312 C 109.722656 322.574219 110.117188 322.839844 110.527344 323.117188 C 110.953125 323.378906 111.394531 323.644531 111.855469 323.921875 C 112.777344 324.476562 113.769531 325.074219 114.824219 325.707031 C 116.914062 327.023438 119.382812 328.265625 122.050781 329.683594 C 122.71875 330.03125 123.394531 330.410156 124.101562 330.75 C 124.816406 331.085938 125.542969 331.421875 126.285156 331.769531 C 127.765625 332.457031 129.304688 333.167969 130.890625 333.902344 C 134.140625 335.179688 137.53125 336.703125 141.226562 337.894531 C 155.824219 343.195312 174.054688 346.480469 192.332031 346.550781 C 210.613281 346.480469 228.839844 343.195312 243.4375 337.890625 C 247.136719 336.703125 250.527344 335.179688 253.777344 333.902344 C 255.363281 333.167969 256.898438 332.457031 258.382812 331.765625 C 259.121094 331.421875 259.851562 331.082031 260.5625 330.75 C 261.273438 330.410156 261.945312 330.03125 262.617188 329.683594 C 265.285156 328.265625 267.753906 327.023438 269.839844 325.707031 C 270.894531 325.074219 271.886719 324.476562 272.808594 323.921875 C 273.269531 323.644531 273.714844 323.375 274.136719 323.117188 C 274.550781 322.839844 274.945312 322.574219 275.324219 322.320312 C 275.324219 322.320312 276.734375 321.375 278.148438 320.429688 C 278.851562 319.953125 279.558594 319.484375 280.089844 319.128906 C 280.621094 318.78125 280.953125 318.515625 280.953125 318.515625 C 280.953125 318.515625 282.472656 317.417969 284.75 315.773438 C 285.316406 315.363281 285.933594 314.921875 286.585938 314.449219 C 287.214844 313.949219 287.878906 313.421875 288.566406 312.875 C 289.933594 311.773438 291.414062 310.628906 292.855469 309.433594 C 295.660156 306.953125 298.519531 304.535156 300.488281 302.527344 C 301.496094 301.554688 302.335938 300.738281 302.925781 300.171875 C 303.515625 299.605469 303.84375 299.269531 303.84375 299.269531 C 303.84375 299.269531 305.140625 297.917969 307.082031 295.890625 C 309.082031 293.914062 311.457031 291.015625 313.933594 288.210938 C 316.234375 285.253906 318.644531 282.378906 320.21875 280.046875 C 321.851562 277.757812 322.941406 276.234375 322.941406 276.234375 L 326.710938 270.566406 C 334.554688 258.335938 340.847656 245.015625 344.953125 230.988281 C 349.226562 217 351.199219 202.328125 351.328125 187.667969 L 351.332031 187.65625 L 351.332031 187.445312 " fill-opacity="1" fill-rule="nonzero"/></g><g fill="#000000" fill-opacity="1"><g transform="translate(187.788555, 79.858567)"><g><path d="M 4.21875 -7.34375 L 4.21875 0 L 3.109375 0 L 3.109375 -7.34375 L 0.265625 -7.34375 L 0.265625 -8.25 L 7.0625 -8.25 L 7.0625 -7.34375 Z M 4.21875 -7.34375 "/></g></g><g transform="translate(195.118633, 79.858567)"><g><path d="M 6.5625 0 L 6.5625 -3.828125 L 2.109375 -3.828125 L 2.109375 0 L 0.984375 0 L 0.984375 -8.25 L 2.109375 -8.25 L 2.109375 -4.765625 L 6.5625 -4.765625 L 6.5625 -8.25 L 7.6875 -8.25 L 7.6875 0 Z M 6.5625 0 "/></g></g><g transform="translate(203.784648, 79.858567)"><g><path d="M 0.984375 0 L 0.984375 -8.25 L 7.25 -8.25 L 7.25 -7.34375 L 2.109375 -7.34375 L 2.109375 -4.6875 L 6.890625 -4.6875 L 6.890625 -3.796875 L 2.109375 -3.796875 L 2.109375 -0.921875 L 7.484375 -0.921875 L 7.484375 0 Z M 0.984375 0 "/></g></g></g><g fill="#fdfdfd" fill-opacity="1"><g transform="translate(139.85106, 201.147306)"><g><path d="M 24.21875 0.6875 C 21.757812 0.6875 19.351562 0.378906 17 -0.234375 C 14.644531 -0.859375 12.492188 -1.785156 10.546875 -3.015625 C 8.597656 -4.253906 6.988281 -5.800781 5.71875 -7.65625 C 4.445312 -9.507812 3.6875 -11.6875 3.4375 -14.1875 L 13.703125 -14.1875 C 14.046875 -12.675781 14.695312 -11.40625 15.65625 -10.375 C 16.625 -9.34375 17.835938 -8.550781 19.296875 -8 C 20.765625 -7.445312 22.390625 -7.171875 24.171875 -7.171875 C 26.003906 -7.171875 27.675781 -7.398438 29.1875 -7.859375 C 30.695312 -8.316406 31.910156 -9.007812 32.828125 -9.9375 C 33.742188 -10.863281 34.203125 -12.023438 34.203125 -13.421875 C 34.203125 -14.679688 33.828125 -15.710938 33.078125 -16.515625 C 32.335938 -17.316406 31.335938 -17.96875 30.078125 -18.46875 C 28.828125 -18.976562 27.398438 -19.394531 25.796875 -19.71875 L 17.203125 -21.46875 C 13.453125 -22.175781 10.476562 -23.664062 8.28125 -25.9375 C 6.082031 -28.21875 4.945312 -31.257812 4.875 -35.0625 C 4.851562 -38.175781 5.679688 -40.867188 7.359375 -43.140625 C 9.046875 -45.421875 11.335938 -47.179688 14.234375 -48.421875 C 17.128906 -49.660156 20.375 -50.28125 23.96875 -50.28125 C 28.25 -50.28125 31.847656 -49.609375 34.765625 -48.265625 C 37.691406 -46.929688 39.914062 -45.125 41.4375 -42.84375 C 42.957031 -40.5625 43.738281 -38.023438 43.78125 -35.234375 L 33.71875 -35.234375 C 33.539062 -36.972656 33.015625 -38.359375 32.140625 -39.390625 C 31.273438 -40.421875 30.160156 -41.164062 28.796875 -41.625 C 27.429688 -42.082031 25.878906 -42.3125 24.140625 -42.3125 C 22.816406 -42.3125 21.609375 -42.160156 20.515625 -41.859375 C 19.429688 -41.566406 18.507812 -41.148438 17.75 -40.609375 C 17 -40.066406 16.414062 -39.429688 16 -38.703125 C 15.59375 -37.972656 15.390625 -37.148438 15.390625 -36.234375 C 15.390625 -34.785156 15.867188 -33.613281 16.828125 -32.71875 C 17.785156 -31.832031 19.582031 -31.101562 22.21875 -30.53125 L 30.734375 -28.78125 C 33.785156 -28.1875 36.207031 -27.304688 38 -26.140625 C 39.800781 -24.972656 41.148438 -23.65625 42.046875 -22.1875 C 42.953125 -20.71875 43.546875 -19.222656 43.828125 -17.703125 C 44.117188 -16.179688 44.265625 -14.78125 44.265625 -13.5 C 44.265625 -10.820312 43.421875 -8.410156 41.734375 -6.265625 C 40.054688 -4.128906 37.71875 -2.4375 34.71875 -1.1875 C 31.71875 0.0625 28.21875 0.6875 24.21875 0.6875 Z M 24.21875 0.6875 "/></g></g></g><g fill="#fdfdfd" fill-opacity="1"><g transform="translate(199.808847, 196.746332)"><g><path d="M 38.78125 0 L 29.84375 0 L 19.078125 -18.90625 L 13.0625 -11.65625 L 13.0625 0 L 4.546875 0 L 4.546875 -40.640625 L 13.0625 -40.640625 L 13.0625 -22.03125 L 27.875 -40.640625 L 37.296875 -40.640625 L 24.953125 -24.890625 Z M 38.78125 0 "/></g></g></g><g fill="#fdfdfd" fill-opacity="1"><g transform="translate(240.094383, 196.746332)"><g><path d="M 4.546875 -40.640625 L 12.734375 -40.640625 L 12.734375 0 L 4.546875 0 Z M 4.546875 -40.640625 "/></g></g></g><g fill="#fdfdfd" fill-opacity="1"><g transform="translate(257.37166, 196.746332)"><g><path d="M 31.21875 -40.640625 L 39.421875 -40.640625 L 39.421875 0 L 32.03125 0 L 12.734375 -27.953125 L 12.734375 0 L 4.546875 0 L 4.546875 -40.640625 L 12.671875 -40.640625 L 31.21875 -13.734375 Z M 31.21875 -40.640625 "/></g></g></g><g fill="#fdfdfd" fill-opacity="1"><g transform="translate(301.309303, 196.746332)"><g><path d="M 19.8125 0.5625 C 17.800781 0.5625 15.832031 0.3125 13.90625 -0.1875 C 11.976562 -0.695312 10.21875 -1.457031 8.625 -2.46875 C 7.03125 -3.476562 5.710938 -4.742188 4.671875 -6.265625 C 3.640625 -7.785156 3.019531 -9.566406 2.8125 -11.609375 L 11.21875 -11.609375 C 11.5 -10.367188 12.03125 -9.328125 12.8125 -8.484375 C 13.601562 -7.640625 14.597656 -6.992188 15.796875 -6.546875 C 16.992188 -6.097656 18.320312 -5.875 19.78125 -5.875 C 21.28125 -5.875 22.644531 -6.0625 23.875 -6.4375 C 25.113281 -6.8125 26.109375 -7.378906 26.859375 -8.140625 C 27.609375 -8.898438 27.984375 -9.847656 27.984375 -10.984375 C 27.984375 -12.015625 27.675781 -12.859375 27.0625 -13.515625 C 26.457031 -14.171875 25.640625 -14.703125 24.609375 -15.109375 C 23.585938 -15.523438 22.421875 -15.863281 21.109375 -16.125 L 14.078125 -17.5625 C 11.003906 -18.144531 8.566406 -19.367188 6.765625 -21.234375 C 4.972656 -23.097656 4.046875 -25.582031 3.984375 -28.6875 C 3.972656 -31.238281 4.65625 -33.445312 6.03125 -35.3125 C 7.40625 -37.175781 9.273438 -38.613281 11.640625 -39.625 C 14.015625 -40.632812 16.671875 -41.140625 19.609375 -41.140625 C 23.117188 -41.140625 26.066406 -40.59375 28.453125 -39.5 C 30.835938 -38.40625 32.648438 -36.925781 33.890625 -35.0625 C 35.140625 -33.195312 35.785156 -31.117188 35.828125 -28.828125 L 27.59375 -28.828125 C 27.445312 -30.253906 27.015625 -31.390625 26.296875 -32.234375 C 25.585938 -33.078125 24.675781 -33.6875 23.5625 -34.0625 C 22.445312 -34.4375 21.175781 -34.625 19.75 -34.625 C 18.664062 -34.625 17.675781 -34.5 16.78125 -34.25 C 15.894531 -34.007812 15.140625 -33.664062 14.515625 -33.21875 C 13.898438 -32.78125 13.425781 -32.257812 13.09375 -31.65625 C 12.757812 -31.0625 12.59375 -30.390625 12.59375 -29.640625 C 12.59375 -28.460938 12.984375 -27.507812 13.765625 -26.78125 C 14.554688 -26.050781 16.03125 -25.453125 18.1875 -24.984375 L 25.15625 -23.546875 C 27.644531 -23.054688 29.625 -22.332031 31.09375 -21.375 C 32.5625 -20.425781 33.664062 -19.351562 34.40625 -18.15625 C 35.144531 -16.957031 35.628906 -15.734375 35.859375 -14.484375 C 36.097656 -13.242188 36.21875 -12.097656 36.21875 -11.046875 C 36.21875 -8.847656 35.53125 -6.875 34.15625 -5.125 C 32.78125 -3.375 30.863281 -1.988281 28.40625 -0.96875 C 25.957031 0.0507812 23.09375 0.5625 19.8125 0.5625 Z M 19.8125 0.5625 "/></g></g></g></svg>